<svg style="display:none;" xmlns="http://www.w3.org/2000/svg" xmlns:xlink="http://www.w3.org/1999/xlink">
  <!-- Icono add -->
  <symbol id="add-no-circle-icon" viewBox="0 0 42 42">
    <path d="M37.059,16H26V4.941C26,2.224,23.718,0,21,0s-5,2.224-5,4.941V16H4.941C2.224,16,0,18.282,0,21
	s2.224,5,4.941,5H16v11.059C16,39.776,18.282,42,21,42s5-2.224,5-4.941V26h11.059C39.776,26,42,23.718,42,21S39.776,16,37.059,16z"
    />
  </symbol>
  <!-- Icono arrow down -->
  <symbol id="arrow-down-icon" viewBox="0 0 438.533 438.533">
	<path d="M409.133,109.203c-19.608-33.592-46.205-60.189-79.798-79.796C295.736,9.801,259.058,0,219.273,0
		c-39.781,0-76.47,9.801-110.063,29.407c-33.595,19.604-60.192,46.201-79.8,79.796C9.801,142.8,0,179.489,0,219.267
		c0,39.78,9.804,76.463,29.407,110.062c19.607,33.592,46.204,60.189,79.799,79.798c33.597,19.605,70.283,29.407,110.063,29.407
		s76.47-9.802,110.065-29.407c33.593-19.602,60.189-46.206,79.795-79.798c19.603-33.596,29.403-70.284,29.403-110.062
		C438.533,179.485,428.732,142.795,409.133,109.203z M361.733,204.705L232.119,334.324c-3.614,3.614-7.9,5.428-12.849,5.428
		c-4.948,0-9.229-1.813-12.847-5.428L76.804,204.705c-3.617-3.615-5.426-7.898-5.426-12.845c0-4.949,1.809-9.235,5.426-12.851
		l29.119-29.121c3.621-3.618,7.9-5.426,12.851-5.426c4.948,0,9.231,1.809,12.847,5.426l87.65,87.65l87.65-87.65
		c3.614-3.618,7.898-5.426,12.847-5.426c4.949,0,9.233,1.809,12.847,5.426l29.123,29.121c3.621,3.616,5.428,7.902,5.428,12.851
		C367.164,196.807,365.357,201.09,361.733,204.705z"/>
  </symbol>
	<!-- Icono arrow right -->
	<symbol id="arrow-right-icon" viewBox="0 0 438.533 438.533">
		<path d="M409.133,109.203c-19.608-33.592-46.205-60.189-79.798-79.796C295.736,9.801,259.058,0,219.273,0
		c-39.781,0-76.47,9.801-110.063,29.407c-33.595,19.604-60.192,46.201-79.8,79.796C9.801,142.8,0,179.489,0,219.267
		c0,39.78,9.804,76.463,29.407,110.062c19.607,33.592,46.204,60.189,79.799,79.798c33.597,19.605,70.283,29.407,110.063,29.407
		s76.47-9.802,110.065-29.407c33.593-19.602,60.189-46.206,79.795-79.798c19.603-33.596,29.403-70.284,29.403-110.062
		C438.533,179.485,428.732,142.795,409.133,109.203z M334.332,232.111L204.71,361.736c-3.617,3.613-7.896,5.428-12.847,5.428
		c-4.952,0-9.235-1.814-12.85-5.428l-29.121-29.13c-3.617-3.613-5.426-7.898-5.426-12.847c0-4.941,1.809-9.232,5.426-12.847
		l87.653-87.646l-87.657-87.65c-3.617-3.612-5.426-7.898-5.426-12.845c0-4.949,1.809-9.231,5.426-12.847l29.121-29.13
		c3.619-3.615,7.898-5.424,12.85-5.424c4.95,0,9.233,1.809,12.85,5.424l129.622,129.621c3.613,3.614,5.42,7.898,5.42,12.847
		C339.752,224.213,337.945,228.498,334.332,232.111z"/>
	</symbol>
</svg>