<svg style="display:none;" xmlns="http://www.w3.org/2000/svg" xmlns:xlink="http://www.w3.org/1999/xlink">
  <!-- Icono add -->
  <symbol id="add-no-circle-icon" viewBox="0 0 42 42">
    <path d="M37.059,16H26V4.941C26,2.224,23.718,0,21,0s-5,2.224-5,4.941V16H4.941C2.224,16,0,18.282,0,21
	s2.224,5,4.941,5H16v11.059C16,39.776,18.282,42,21,42s5-2.224,5-4.941V26h11.059C39.776,26,42,23.718,42,21S39.776,16,37.059,16z"
    />
  </symbol>
  <!-- Icono arrow down -->
  <symbol id="arrow-down-icon" viewBox="0 0 438.533 438.533">
	<path d="M409.133,109.203c-19.608-33.592-46.205-60.189-79.798-79.796C295.736,9.801,259.058,0,219.273,0
		c-39.781,0-76.47,9.801-110.063,29.407c-33.595,19.604-60.192,46.201-79.8,79.796C9.801,142.8,0,179.489,0,219.267
		c0,39.78,9.804,76.463,29.407,110.062c19.607,33.592,46.204,60.189,79.799,79.798c33.597,19.605,70.283,29.407,110.063,29.407
		s76.47-9.802,110.065-29.407c33.593-19.602,60.189-46.206,79.795-79.798c19.603-33.596,29.403-70.284,29.403-110.062
		C438.533,179.485,428.732,142.795,409.133,109.203z M361.733,204.705L232.119,334.324c-3.614,3.614-7.9,5.428-12.849,5.428
		c-4.948,0-9.229-1.813-12.847-5.428L76.804,204.705c-3.617-3.615-5.426-7.898-5.426-12.845c0-4.949,1.809-9.235,5.426-12.851
		l29.119-29.121c3.621-3.618,7.9-5.426,12.851-5.426c4.948,0,9.231,1.809,12.847,5.426l87.65,87.65l87.65-87.65
		c3.614-3.618,7.898-5.426,12.847-5.426c4.949,0,9.233,1.809,12.847,5.426l29.123,29.121c3.621,3.616,5.428,7.902,5.428,12.851
		C367.164,196.807,365.357,201.09,361.733,204.705z"/>
  </symbol>
	<!-- Icono arrow right -->
	<symbol id="arrow-right-icon" viewBox="0 0 438.533 438.533">
		<path d="M409.133,109.203c-19.608-33.592-46.205-60.189-79.798-79.796C295.736,9.801,259.058,0,219.273,0
		c-39.781,0-76.47,9.801-110.063,29.407c-33.595,19.604-60.192,46.201-79.8,79.796C9.801,142.8,0,179.489,0,219.267
		c0,39.78,9.804,76.463,29.407,110.062c19.607,33.592,46.204,60.189,79.799,79.798c33.597,19.605,70.283,29.407,110.063,29.407
		s76.47-9.802,110.065-29.407c33.593-19.602,60.189-46.206,79.795-79.798c19.603-33.596,29.403-70.284,29.403-110.062
		C438.533,179.485,428.732,142.795,409.133,109.203z M334.332,232.111L204.71,361.736c-3.617,3.613-7.896,5.428-12.847,5.428
		c-4.952,0-9.235-1.814-12.85-5.428l-29.121-29.13c-3.617-3.613-5.426-7.898-5.426-12.847c0-4.941,1.809-9.232,5.426-12.847
		l87.653-87.646l-87.657-87.65c-3.617-3.612-5.426-7.898-5.426-12.845c0-4.949,1.809-9.231,5.426-12.847l29.121-29.13
		c3.619-3.615,7.898-5.424,12.85-5.424c4.95,0,9.233,1.809,12.85,5.424l129.622,129.621c3.613,3.614,5.42,7.898,5.42,12.847
		C339.752,224.213,337.945,228.498,334.332,232.111z"/>
	</symbol>
	<!-- Icono remove circle -->
	<symbol id="remove-circle-icon" viewBox="0 0 96.25 96.25">
		<path d="M82.154,14.096c-18.793-18.794-49.266-18.794-68.059,0c-18.794,18.793-18.794,49.266,0,68.059
			c18.793,18.794,49.266,18.794,68.059,0C100.949,63.36,100.949,32.889,82.154,14.096z M79.016,66.098
			c0.597,0.597,0.597,1.562,0,2.159L68.259,79.015c-0.597,0.597-1.563,0.597-2.16,0L48.125,61.041L30.152,79.015
			c-0.597,0.597-1.563,0.597-2.16,0L17.235,68.257c-0.597-0.597-0.597-1.562,0-2.159l17.973-17.973L17.235,30.151
			c-0.597-0.597-0.597-1.563,0-2.16l10.757-10.757c0.597-0.597,1.563-0.597,2.16,0l17.973,17.973l17.973-17.973
			c0.597-0.597,1.563-0.597,2.16,0l10.757,10.757c0.597,0.597,0.597,1.563,0,2.16L61.043,48.125L79.016,66.098z"/>
	</symbol>
	<!-- Icono edit pencil -->
	<symbol id="edit-pencil-icon" viewBox="0 0 469.331 469.331">
		<path d="M438.931,30.403c-40.4-40.5-106.1-40.5-146.5,0l-268.6,268.5c-2.1,2.1-3.4,4.8-3.8,7.7l-19.9,147.4
			c-0.6,4.2,0.9,8.4,3.8,11.3c2.5,2.5,6,4,9.5,4c0.6,0,1.2,0,1.8-0.1l88.8-12c7.4-1,12.6-7.8,11.6-15.2c-1-7.4-7.8-12.6-15.2-11.6
			l-71.2,9.6l13.9-102.8l108.2,108.2c2.5,2.5,6,4,9.5,4s7-1.4,9.5-4l268.6-268.5c19.6-19.6,30.4-45.6,30.4-73.3
			S458.531,49.903,438.931,30.403z M297.631,63.403l45.1,45.1l-245.1,245.1l-45.1-45.1L297.631,63.403z M160.931,416.803l-44.1-44.1
			l245.1-245.1l44.1,44.1L160.931,416.803z M424.831,152.403l-107.9-107.9c13.7-11.3,30.8-17.5,48.8-17.5c20.5,0,39.7,8,54.2,22.4
			s22.4,33.7,22.4,54.2C442.331,121.703,436.131,138.703,424.831,152.403z"/>
	</symbol>
	<!-- Icono password -->
	<symbol id="password-icon" viewBox="0 0 512 512">
		<path d="M511.998,14.958C511.972,6.692,505.238,0,496.993,0h-84.861c-3.979,0-7.794,1.581-10.608,4.395L215.74,190.178
			c-58.758-19.022-123.538-3.761-167.483,40.185c-64.343,64.343-64.343,169.037,0,233.38c64.342,64.342,169.035,64.345,233.38,0
			c43.946-43.946,59.206-108.725,40.185-167.483l12.84-12.84l48.587-9.717c5.939-1.188,10.581-5.83,11.769-11.769l8.647-43.234
			l43.234-8.647c5.944-1.188,10.589-5.838,11.772-11.783l8.205-41.246h30.122c8.285,0,15.002-6.717,15.002-15.002V15.002
			C512,14.987,511.998,14.973,511.998,14.958z M481.995,127.019h-27.431c-7.157,0-13.317,5.056-14.714,12.075l-8.654,43.501
			l-43.223,8.645c-5.939,1.188-10.581,5.83-11.769,11.769l-8.647,43.234l-43.233,8.647c-2.904,0.581-5.572,2.008-7.666,4.103
			l-22.76,22.76c-4.214,4.214-5.535,10.523-3.364,16.073c19.572,50.038,7.751,106.836-30.114,144.703
			c-52.637,52.636-138.295,52.652-190.948,0c-52.644-52.645-52.644-138.304,0-190.948c37.927-37.926,94.741-49.656,144.703-30.114
			c5.552,2.171,11.859,0.851,16.073-3.364L418.346,30.005h42.433L274.225,216.558c-5.859,5.859-5.859,15.357,0,21.216
			c2.929,2.929,6.769,4.395,10.608,4.395s7.679-1.464,10.608-4.395L481.995,51.221V127.019z"/>
		<path d="M154.339,357.661c-17.548-17.548-46.101-17.549-63.649,0c-17.548,17.548-17.548,46.101,0,63.649
			c17.547,17.548,46.101,17.549,63.649,0C171.887,403.762,171.887,375.208,154.339,357.661z M133.123,400.093
			c-5.865,5.864-15.352,5.864-21.216,0c-5.864-5.865-5.863-15.352,0-21.216c5.851-5.85,15.367-5.849,21.216,0
			C138.972,384.726,138.972,394.244,133.123,400.093z"/>
	 </symbol>
</svg>